<?xml version="1.0" standalone="no"?>
<!DOCTYPE svg PUBLIC "-//W3C//DTD SVG 20010904//EN"
 "http://www.w3.org/TR/2001/REC-SVG-20010904/DTD/svg10.dtd">
<svg version="1.0" xmlns="http://www.w3.org/2000/svg"
 width="512.000000pt" height="512.000000pt" viewBox="0 0 512.000000 512.000000"
 preserveAspectRatio="xMidYMid meet">
<metadata>
Created by potrace 1.14, written by Peter Selinger 2001-2017
</metadata>
<g transform="translate(0.000000,512.000000) scale(0.100000,-0.100000)"
fill="#000000" stroke="none">
<path d="M3055 4495 c-42 -15 -95 -68 -95 -95 0 -9 -4 -20 -9 -25 -4 -6 -16
-34 -27 -62 -10 -29 -21 -53 -26 -53 -4 0 -96 43 -205 96 -109 53 -209 100
-222 105 -67 27 -146 1 -186 -59 -22 -35 -27 -50 -41 -150 -4 -23 -10 -45 -14
-47 -4 -2 -99 41 -211 97 -226 112 -260 121 -324 85 -47 -27 -71 -66 -95 -155
-37 -136 -73 -257 -80 -265 -3 -4 -37 4 -75 18 -73 26 -108 25 -135 -6 -14
-17 -19 -16 -105 13 -77 26 -92 35 -105 62 -21 44 -61 56 -108 31 -71 -39 -80
-73 -83 -312 l-1 -123 -26 -1 c-15 -1 -47 -2 -72 -4 -25 -1 -110 -6 -189 -9
-150 -7 -168 -12 -213 -54 -57 -53 -59 -115 -8 -225 15 -34 47 -102 69 -151
23 -49 40 -90 39 -91 -2 -1 -81 -30 -177 -64 -191 -68 -208 -75 -234 -103 -23
-24 -45 -77 -42 -103 8 -76 27 -100 209 -264 l38 -33 -80 -82 c-221 -224 -227
-233 -219 -302 11 -88 37 -112 192 -174 44 -18 101 -41 126 -52 51 -22 49 -13
25 -108 -28 -110 -68 -293 -71 -320 -6 -71 39 -138 110 -166 65 -24 86 -18
360 106 108 49 158 70 161 68 2 -2 43 -41 91 -88 49 -47 99 -93 112 -104 86
-67 246 -152 368 -196 58 -21 63 -25 58 -49 -20 -101 -23 -148 -13 -200 30
-162 179 -276 346 -265 55 4 133 33 164 61 16 15 23 13 90 -21 113 -56 229
-53 328 9 111 70 149 153 169 362 1 9 39 11 144 10 l142 -2 45 -90 c25 -49 56
-112 68 -140 54 -121 177 -196 312 -189 62 3 115 23 179 66 l44 29 21 -20 c38
-36 131 -72 195 -75 125 -7 252 68 308 181 24 50 28 70 28 143 0 86 -23 185
-64 275 l-19 41 47 30 c137 91 185 151 158 195 -8 13 4 33 60 97 48 53 75 77
83 72 16 -10 60 -3 77 12 23 19 108 170 145 258 85 199 118 388 118 668 0 7 7
12 16 12 27 0 162 58 217 94 121 76 171 163 172 292 0 69 -4 89 -29 137 -57
113 -163 178 -296 181 -26 1 -34 5 -31 16 2 8 11 53 19 99 18 98 8 158 -36
204 -45 48 -75 59 -174 66 -3 1 -5 13 -3 29 1 15 11 93 20 174 17 140 17 149
1 193 -13 34 -28 51 -60 70 -52 30 -91 31 -176 4 -36 -11 -69 -22 -75 -23 -5
-1 -34 -10 -63 -20 -29 -10 -54 -16 -55 -15 -2 2 -24 37 -50 76 -26 40 -47 74
-47 76 0 2 -29 48 -65 102 -73 112 -114 145 -181 145 -50 0 -91 -26 -160 -100
-27 -30 -69 -75 -94 -102 l-45 -48 -165 118 c-149 107 -211 143 -244 142 -6
-1 -29 -7 -51 -15z"/>
</g>
</svg>
